<svg width="220" height="220" viewBox="0 0 220 220" fill="none" xmlns="http://www.w3.org/2000/svg">
<path d="M158.354 166.146L154.458 162.25C153.083 160.875 151.443 160.188 149.536 160.188C147.629 160.188 145.985 160.875 144.604 162.25C143.229 163.625 142.542 165.229 142.542 167.063C142.542 168.896 143.229 170.5 144.604 171.875L153.542 180.813C154.917 182.188 156.521 182.875 158.354 182.875C160.188 182.875 161.792 182.188 163.167 180.813L185.396 159.042C186.771 157.667 187.458 156.023 187.458 154.11C187.458 152.197 186.771 150.556 185.396 149.188C184.021 147.813 182.377 147.125 180.464 147.125C178.551 147.125 176.911 147.813 175.542 149.188L158.354 166.146ZM155.833 82.5C158.431 82.5 160.609 81.62 162.369 79.86C164.129 78.1 165.006 75.9245 165 73.3333C165 70.7361 164.12 68.5575 162.36 66.7975C160.6 65.0375 158.424 64.1606 155.833 64.1667H64.1667C61.5694 64.1667 59.3908 65.0467 57.6308 66.8067C55.8708 68.5667 54.9939 70.7422 55 73.3333C55 75.9306 55.88 78.1092 57.64 79.8692C59.4 81.6292 61.5756 82.5061 64.1667 82.5H155.833ZM165 210.833C152.319 210.833 141.512 206.363 132.578 197.423C123.643 188.482 119.173 177.674 119.167 165C119.167 152.319 123.637 141.509 132.578 132.568C141.518 123.628 152.326 119.161 165 119.167C177.681 119.167 188.491 123.637 197.432 132.578C206.372 141.518 210.839 152.326 210.833 165C210.833 177.681 206.363 188.491 197.423 197.432C188.482 206.372 177.674 210.839 165 210.833ZM45.8333 27.5H174.167C179.208 27.5 183.526 29.2967 187.119 32.89C190.713 36.4833 192.506 40.7978 192.5 45.8333V107.021C188.222 104.882 183.752 103.314 179.089 102.318C174.426 101.322 169.73 100.827 165 100.833H64.1667C61.5694 100.833 59.3908 101.713 57.6308 103.473C55.8708 105.233 54.9939 107.409 55 110C55 112.597 55.88 114.776 57.64 116.536C59.4 118.296 61.5756 119.173 64.1667 119.167H120.083C117.486 121.764 115.081 124.59 112.869 127.646C110.657 130.701 108.708 133.986 107.021 137.5H64.1667C61.5694 137.5 59.3908 138.38 57.6308 140.14C55.8708 141.9 54.9939 144.076 55 146.667C55 149.264 55.88 151.443 57.64 153.202C59.4 154.963 61.5756 155.839 64.1667 155.833H101.521C101.215 157.361 101.023 158.852 100.943 160.307C100.864 161.761 100.827 163.326 100.833 165C100.833 171.417 101.713 177.568 103.473 183.453C105.233 189.338 107.867 194.951 111.375 200.292C110.611 200.444 109.808 200.328 108.964 199.943C108.121 199.558 107.397 199.063 106.792 198.458L99.4583 191.125C98.5417 190.208 97.4722 189.75 96.25 189.75C95.0278 189.75 93.9583 190.208 93.0417 191.125L85.7083 198.458C84.7917 199.375 83.7222 199.833 82.5 199.833C81.2778 199.833 80.2083 199.375 79.2917 198.458L71.9583 191.125C71.0417 190.208 69.9722 189.75 68.75 189.75C67.5278 189.75 66.4583 190.208 65.5417 191.125L58.2083 198.458C57.2917 199.375 56.2222 199.833 55 199.833C53.7778 199.833 52.7083 199.375 51.7917 198.458L44.4583 191.125C43.5417 190.208 42.4722 189.75 41.25 189.75C40.0278 189.75 38.9583 190.208 38.0417 191.125L30.7083 198.458L27.5 200.521V45.8333C27.5 40.7917 29.2967 36.4742 32.89 32.8808C36.4833 29.2875 40.7978 27.4939 45.8333 27.5Z" fill="#D1D0C5"/>
</svg>
