<svg width="26" height="24" viewBox="0 0 26 24" fill="none" xmlns="http://www.w3.org/2000/svg">
<path d="M7.27791 14.29L6.98716 14.59V7C6.98716 6.73478 6.88154 6.48043 6.69352 6.29289C6.5055 6.10536 6.25049 6 5.98459 6C5.71869 6 5.46369 6.10536 5.27567 6.29289C5.08765 6.48043 4.98202 6.73478 4.98202 7V14.59L4.69128 14.29C4.50249 14.1017 4.24644 13.9959 3.97945 13.9959C3.71246 13.9959 3.45641 14.1017 3.26763 14.29C3.07884 14.4783 2.97278 14.7337 2.97278 15C2.97278 15.2663 3.07884 15.5217 3.26763 15.71L5.27277 17.71C5.36812 17.801 5.48055 17.8724 5.60362 17.92C5.72362 17.9729 5.85339 18.0002 5.98459 18.0002C6.1158 18.0002 6.24556 17.9729 6.36557 17.92C6.48864 17.8724 6.60107 17.801 6.69642 17.71L8.70156 15.71C8.79504 15.6168 8.86919 15.5061 8.91978 15.3842C8.97037 15.2624 8.99641 15.1319 8.99641 15C8.99641 14.8681 8.97037 14.7376 8.91978 14.6158C8.86919 14.4939 8.79504 14.3832 8.70156 14.29C8.60808 14.1968 8.49711 14.1228 8.37497 14.0723C8.25284 14.0219 8.12193 13.9959 7.98973 13.9959C7.85754 13.9959 7.72663 14.0219 7.6045 14.0723C7.48236 14.1228 7.37139 14.1968 7.27791 14.29ZM12 8H22.0257C22.2916 8 22.5466 7.89464 22.7346 7.70711C22.9227 7.51957 23.0283 7.26522 23.0283 7C23.0283 6.73478 22.9227 6.48043 22.7346 6.29289C22.5466 6.10536 22.2916 6 22.0257 6H12C11.7341 6 11.4791 6.10536 11.2911 6.29289C11.1031 6.48043 10.9974 6.73478 10.9974 7C10.9974 7.26522 11.1031 7.51957 11.2911 7.70711C11.4791 7.89464 11.7341 8 12 8ZM22.0257 11H12C11.7341 11 11.4791 11.1054 11.2911 11.2929C11.1031 11.4804 10.9974 11.7348 10.9974 12C10.9974 12.2652 11.1031 12.5196 11.2911 12.7071C11.4791 12.8946 11.7341 13 12 13H22.0257C22.2916 13 22.5466 12.8946 22.7346 12.7071C22.9227 12.5196 23.0283 12.2652 23.0283 12C23.0283 11.7348 22.9227 11.4804 22.7346 11.2929C22.5466 11.1054 22.2916 11 22.0257 11ZM22.0257 16H12C11.7341 16 11.4791 16.1054 11.2911 16.2929C11.1031 16.4804 10.9974 16.7348 10.9974 17C10.9974 17.2652 11.1031 17.5196 11.2911 17.7071C11.4791 17.8946 11.7341 18 12 18H22.0257C22.2916 18 22.5466 17.8946 22.7346 17.7071C22.9227 17.5196 23.0283 17.2652 23.0283 17C23.0283 16.7348 22.9227 16.4804 22.7346 16.2929C22.5466 16.1054 22.2916 16 22.0257 16Z" fill="#646669"/>
</svg>
