<svg width="24" height="24" viewBox="0 0 24 24" fill="none" xmlns="http://www.w3.org/2000/svg">
<path d="M19.575 12C19.575 12.1333 19.554 12.2583 19.512 12.375C19.4707 12.4917 19.4 12.6 19.3 12.7L12.7 19.3C12.5 19.5 12.2623 19.6 11.987 19.6C11.7123 19.6 11.475 19.5 11.275 19.3C11.075 19.1 10.975 18.8667 10.975 18.6C10.975 18.3333 11.075 18.1 11.275 17.9L16.175 13L4.975 13C4.69167 13 4.45833 12.904 4.275 12.712C4.09167 12.5207 4 12.2833 4 12C4 11.7167 4.09567 11.479 4.287 11.287C4.479 11.0957 4.71667 11 5 11L16.175 11L11.275 6.10001C11.075 5.90001 10.975 5.66667 10.975 5.40001C10.975 5.13334 11.075 4.90001 11.275 4.70001C11.475 4.50001 11.7123 4.40001 11.987 4.40001C12.2623 4.40001 12.5 4.50001 12.7 4.70001L19.3 11.3C19.4 11.4 19.4707 11.5083 19.512 11.625C19.554 11.7417 19.575 11.8667 19.575 12V12Z" fill="#1E1E1E"/>
</svg>
