<svg width="20" height="20" viewBox="0 0 20 20" fill="none" xmlns="http://www.w3.org/2000/svg">
<path d="M16.3127 10C16.3127 10.1111 16.2952 10.2153 16.2602 10.3125C16.2257 10.4097 16.1668 10.5 16.0835 10.5833L10.5835 16.0833C10.4168 16.25 10.2188 16.3333 9.98933 16.3333C9.76044 16.3333 9.56266 16.25 9.396 16.0833C9.22933 15.9167 9.146 15.7222 9.146 15.5C9.146 15.2778 9.22933 15.0833 9.396 14.9167L13.4793 10.8333H4.146C3.90988 10.8333 3.71544 10.7533 3.56266 10.5933C3.40989 10.4339 3.3335 10.2361 3.3335 10C3.3335 9.7639 3.41322 9.56584 3.57266 9.40584C3.73266 9.2464 3.93072 9.16668 4.16683 9.16668H13.4793L9.396 5.08334C9.22933 4.91668 9.146 4.72223 9.146 4.50001C9.146 4.27779 9.22933 4.08334 9.396 3.91668C9.56266 3.75001 9.76044 3.66668 9.98933 3.66668C10.2188 3.66668 10.4168 3.75001 10.5835 3.91668L16.0835 9.41668C16.1668 9.50001 16.2257 9.59029 16.2602 9.68751C16.2952 9.78473 16.3127 9.8889 16.3127 10Z" fill="#646669"/>
</svg>
